<svg viewBox="0 0 16 22" fill="none" xmlns="http://www.w3.org/2000/svg">
  <g transform="translate(-93,-3)">
    <defs>
      <linearGradient id="paint0" x1="94.6846" y1="11.5658" x2="105.548" y2="22.422" gradientUnits="userSpaceOnUse">
        <stop stop-color="#EE4035"/>
        <stop offset="0.5" stop-color="#2D61F0"/>
        <stop offset="1" stop-color="#A6D30F"/>
      </linearGradient>
      <linearGradient id="paint1" x1="101.285" y1="4.96495" x2="112.142" y2="15.8212" gradientUnits="userSpaceOnUse">
        <stop stop-color="#EE4035"/>
        <stop offset="0.5" stop-color="#2D61F0"/>
        <stop offset="1" stop-color="#A6D30F"/>
      </linearGradient>
      <linearGradient id="paint2" x1="94.6846" y1="11.5658" x2="105.548" y2="22.422" gradientUnits="userSpaceOnUse">
        <stop stop-color="#EE4035"/>
        <stop offset="0.5" stop-color="#2D61F0"/>
        <stop offset="1" stop-color="#A6D30F"/>
      </linearGradient>
    </defs>
    <path d="M107.472 22.1415C107.231 22.1481 105.147 22.1949 103.837 20.5448C103.376 19.9635 103.149 19.3422 103.042 18.8078H105.006C105.387 18.8078 105.748 18.6274 105.982 18.3267L108.741 14.7659C108.955 14.492 109.042 14.1446 108.981 13.8039C108.921 13.4631 108.727 13.1625 108.44 12.9755L97.4103 5.76023C97.1163 5.56649 96.7623 5.51304 96.4216 5.59989C96.0875 5.68674 95.8002 5.91389 95.6399 6.2212C93.9497 9.42797 93.0411 13.0022 93.001 16.5697C92.981 18.7009 93.2616 20.8187 93.8361 22.883C94.0298 23.5645 94.758 23.9453 95.4328 23.7181C96.0541 23.5043 96.3948 22.8429 96.2211 22.2149C95.7067 20.3777 95.4528 18.5004 95.4729 16.6031C95.4996 13.8774 96.1076 11.1449 97.2299 8.61292L105.962 14.325L104.398 16.3426H101.719C101.065 16.3426 100.524 16.8503 100.483 17.505C100.437 18.2867 100.483 20.2976 101.893 22.088C103.917 24.6534 106.99 24.6467 107.578 24.62C108.26 24.5866 108.788 24.0121 108.761 23.3239C108.727 22.6425 108.146 22.108 107.472 22.1415Z" fill="url(#paint0)"/>
    <path d="M99.241 7.88444L101.86 9.6014L104.459 3.48182C104.606 3.12774 104.158 2.83379 103.891 3.1077L99.2344 7.88444H99.241Z" fill="url(#paint1)"/>
    <path d="M98.9016 13.8363C99.4772 13.8363 99.9438 13.3697 99.9438 12.7942C99.9438 12.2186 99.4772 11.752 98.9016 11.752C98.326 11.752 97.8594 12.2186 97.8594 12.7942C97.8594 13.3697 98.326 13.8363 98.9016 13.8363Z" fill="url(#paint2)"/>
  </g>
</svg>
